PathFileType	4	(X/Y/Z)	C:\Users\Basilio\Documents\Thesis Gigler\squatting_fais\c3dfiles\058\SLS_front_pre5\markers_experimental.trc
DataRate	CameraRate	NumFrames	NumMarkers	Units	OrigDataRate	OrigDataStartFrame	OrigNumFrames
200.000000	200.000000	4	61	mm	200.000000	927	1236
Frame#	Time	FHD			LBHD			RBHD			C7			T10			CLAV			LSHO			LUUPA			LMUPA			LDUPA			LLEP			LMEP			LRAD			LUL			LRFIN			RSHO			RUPA1			RMUPA			RDUPA			RLEP			RMEP			RRAD			RUL			RUFIN			LASI			RASI			USACR			LSACR			RSACR			LTHI1			LTHI2			LTHI3			LTHI4			LLFC			LMFC			LTIB1			LTIB2			LTIB3			LTIB4			LLMAL			LMMAL			LHEE			LMT1			LMT2			LMT5			RTHI			RTHI2			RTHI3			RTHI4			RLFC			RMFC			RTIB1			RTIB2			RTIB3			RTIB4			RLMAL			RMMAL			RHEE			RMT1			RMT2			RMT5			
		X1	Y1	Z1	X2	Y2	Z2	X3	Y3	Z3	X4	Y4	Z4	X5	Y5	Z5	X6	Y6	Z6	X7	Y7	Z7	X8	Y8	Z8	X9	Y9	Z9	X10	Y10	Z10	X11	Y11	Z11	X12	Y12	Z12	X13	Y13	Z13	X14	Y14	Z14	X15	Y15	Z15	X16	Y16	Z16	X17	Y17	Z17	X18	Y18	Z18	X19	Y19	Z19	X20	Y20	Z20	X21	Y21	Z21	X22	Y22	Z22	X23	Y23	Z23	X24	Y24	Z24	X25	Y25	Z25	X26	Y26	Z26	X27	Y27	Z27	X28	Y28	Z28	X29	Y29	Z29	X30	Y30	Z30	X31	Y31	Z31	X32	Y32	Z32	X33	Y33	Z33	X34	Y34	Z34	X35	Y35	Z35	X36	Y36	Z36	X37	Y37	Z37	X38	Y38	Z38	X39	Y39	Z39	X40	Y40	Z40	X41	Y41	Z41	X42	Y42	Z42	X43	Y43	Z43	X44	Y44	Z44	X45	Y45	Z45	X46	Y46	Z46	X47	Y47	Z47	X48	Y48	Z48	X49	Y49	Z49	X50	Y50	Z50	X51	Y51	Z51	X52	Y52	Z52	X53	Y53	Z53	X54	Y54	Z54	X55	Y55	Z55	X56	Y56	Z56	X57	Y57	Z57	X58	Y58	Z58	X59	Y59	Z59	X60	Y60	Z60	X61	Y61	Z61	

928	4.635	-319.5230712890626	1822.753784179688	-601.7267456054689	-474.595672607422	1763.876342773438	-671.9497070312501	-310.6437377929688	1830.748657226563	-743.6638183593751	-484.3005981445314	1609.589599609375	-687.6005859375001	-487.8737182617189	1300.29638671875	-676.0994873046876	-321.2344360351563	1569.188598632813	-676.4631347656251	-329.7943725585938	1619.072875976563	-831.3294067382815	-186.17724609375	1528.7451171875	-950.782653808594	-155.5618896484375	1563.403930664063	-929.657897949219	-116.7525329589844	1521.542114257813	-948.8956298828127	-41.81933212280274	1516.603881835938	-938.344421386719	-40.98837661743165	1460.07958984375	-903.328063964844	227.9300537109376	1495.870849609375	-849.8939208984377	231.5738830566407	1518.926147460938	-929.2072753906252	332.0504455566407	1508.830322265625	-854.0808105468752	-339.2398681640626	1613.27685546875	-518.1985473632814	-185.0992736816407	1509.9677734375	-412.7853393554689	-158.8387145996094	1547.80126953125	-433.6573181152345	-115.6602630615235	1513.919067382813	-412.5896301269532	-49.12835693359376	1501.031005859375	-419.8160705566407	-44.13883972167969	1446.733154296875	-474.5936279296876	222.6739959716797	1514.666870117188	-493.8290100097657	222.0317840576172	1522.724365234375	-412.2862243652345	316.7688903808594	1537.613647460938	-478.2640686035157	-317.4286499023438	1124.27587890625	-838.7427978515627	-291.3668212890626	1084.227783203125	-601.9786987304689	-497.6342773437501	1176.832275390625	-675.6302490234376	-508.6716613769532	1149.227294921875	-706.1148071289064	-494.7203063964845	1141.71435546875	-650.6770629882814	-306.8052978515626	854.2591552734377	-930.3601074218752	-260.9652099609376	782.5407714843752	-924.0818481445315	-219.0629272460938	790.854675292969	-895.6157836914065	-278.3799133300782	726.1565551757814	-916.6001586914065	-251.4329071044922	630.1148681640626	-909.1306152343752	-231.0863647460938	621.3024291992189	-781.7214965820315	-159.5174560546875	515.5180053710939	-875.7709960937502	-197.6522521972657	467.020477294922	-933.972106933594	-157.5576934814453	469.4353332519532	-911.3043212890627	-133.5295867919922	391.6736145019532	-889.985778808594	-132.0176239013672	185.4039001464844	-912.2310180664065	-110.6630020141602	203.9047851562501	-822.7058105468752	-182.3225860595703	134.8444519042969	-857.768249511719	36.55538177490235	179.3348083496094	-850.1585693359377	39.05732345581055	184.2694396972657	-896.5842285156252	-5.199198246002198	150.2875061035157	-947.2982177734377	-402.9299926757814	870.4016723632815	-550.5379028320314	-365.7782897949219	815.405456542969	-549.2798461914064	-332.4403991699219	816.034606933594	-550.5222167968751	-391.984100341797	738.6715087890626	-573.9841918945314	-384.3977050781251	558.9865112304689	-607.3272094726564	-339.1953125000001	556.6196899414064	-736.7224731445314	-318.3703613281251	361.2524414062501	-698.9957275390626	-364.4241027832032	278.2093811035157	-647.1146240234376	-324.1911315917969	274.6573486328126	-672.9092407226564	-327.8478393554688	232.9234924316407	-712.9462280273439	-386.9165344238282	117.9716262817383	-688.4219360351564	-348.9223022460938	149.5089263916016	-768.944519042969	-446.3975524902345	106.4111480712891	-759.2821044921876	-236.1954956054688	65.13016510009767	-763.4553222656251	-233.6819915771485	58.76020812988283	-711.5278930664064	-283.4137573242188	25.30319404602051	-664.4613037109376	
929	4.64	-319.6263427734376	1822.625	-601.5190429687501	-474.7372131347657	1764.054321289063	-671.6776123046876	-310.6827087402344	1830.689575195313	-743.4226074218751	-484.4852905273439	1609.557373046875	-687.4146118164064	-488.009002685547	1300.299926757813	-676.1193847656251	-321.4977416992188	1569.229858398438	-676.2507934570314	-329.9081726074219	1619.086791992188	-831.0325927734377	-186.5337677001953	1528.747192382813	-950.6350708007815	-155.7603607177735	1563.469482421875	-929.5979614257815	-117.0513076782227	1521.576416015625	-948.8195800781252	-42.09122467041016	1516.665283203125	-938.2552490234377	-41.61672973632813	1460.049682617188	-902.8511352539065	227.4573211669922	1495.762451171875	-849.9475097656252	231.234848022461	1518.793701171875	-929.091491699219	331.4859313964844	1508.671875	-853.969421386719	-339.4723205566407	1613.218505859375	-517.9707641601564	-185.2182159423828	1509.909057617188	-412.6318359375001	-159.021224975586	1547.682861328125	-433.6657104492189	-115.92578125	1513.907470703125	-412.4147033691407	-49.45374298095705	1500.95263671875	-419.5800781250001	-44.24325561523438	1446.706909179688	-474.4343566894532	222.4179840087891	1514.693481445313	-493.890594482422	221.8955078125001	1522.811889648438	-412.2663574218751	316.3096008300782	1537.664916992188	-478.2757873535157	-317.6388854980469	1124.307006835938	-838.9031982421877	-291.4912109375001	1084.2841796875	-602.1343383789064	-497.7135314941407	1176.856323242188	-675.7261352539064	-508.7657165527345	1149.2998046875	-706.2319335937501	-494.8413696289064	1141.716186523438	-650.7495117187501	-306.9105224609376	854.3674316406252	-930.5396118164065	-261.0134887695313	782.795593261719	-924.3206787109377	-219.1418457031251	790.8977661132815	-895.9021606445315	-278.5244445800782	726.3112182617189	-916.8442993164065	-251.5989074707032	630.1286621093751	-909.4270629882815	-230.9768524169922	621.4691162109376	-782.0381469726565	-159.2859039306641	515.8212280273439	-876.312194824219	-197.8574981689454	467.384246826172	-934.3662109375002	-157.5973510742188	469.4183349609376	-911.625183105469	-133.1550445556641	392.035125732422	-890.5015869140627	-131.7626037597657	185.5664520263672	-912.5937500000002	-110.1954193115235	204.1435241699219	-823.2412719726565	-181.727767944336	135.0670623779297	-858.2520141601565	37.02984237670899	179.7618560791016	-850.6453247070315	39.32158660888673	184.417709350586	-897.1426391601565	-4.926117420196534	150.5816955566407	-947.7171020507815	-402.918182373047	870.4053955078127	-550.5576171875001	-365.7700195312501	815.414733886719	-549.2341918945314	-332.4230651855469	816.0794067382815	-550.5056762695314	-391.8821105957032	738.5955200195314	-573.9873046875001	-384.3204956054689	558.9505004882814	-607.3168334960939	-339.1178894042969	556.5648193359376	-736.6945800781251	-318.3619995117188	361.2361145019532	-698.9947509765626	-364.3473815917969	278.2802124023438	-647.0590209960939	-324.1157226562501	274.6490783691407	-672.9097290039064	-327.7236328125001	232.9421539306641	-712.8638916015626	-386.9721069335939	117.8694915771485	-688.2826538085939	-348.8650207519532	149.5160675048828	-768.866149902344	-446.5331115722657	106.4083862304688	-759.1751708984376	-236.2250213623047	65.22384643554689	-763.3458862304689	-233.7452392578126	58.71434020996095	-711.4381103515626	-283.4943237304688	25.16222763061524	-664.3853149414064	
930	4.645	-319.7286071777344	1822.560913085938	-601.3308105468751	-474.8691711425782	1764.184936523438	-671.4276123046876	-310.9220581054688	1830.586669921875	-743.2098388671876	-484.5790405273439	1609.619384765625	-687.1956787109376	-488.096405029297	1300.318481445313	-676.1174316406251	-321.7149353027344	1569.306274414063	-676.0183105468751	-330.3328552246094	1619.1220703125	-830.7729492187502	-186.8212127685547	1528.7919921875	-950.490905761719	-156.0695953369141	1563.501586914063	-929.4658813476565	-117.2918167114258	1521.619873046875	-948.7676391601565	-42.36300659179688	1516.683959960938	-938.2655029296877	-41.70420455932618	1460.087768554688	-903.0435180664065	227.0346069335938	1495.725463867188	-849.8969726562502	230.8348693847657	1518.594360351563	-928.9440917968752	331.0863952636719	1508.603271484375	-853.8321533203127	-339.9355773925782	1613.017456054688	-517.7521362304689	-185.3449859619141	1509.823364257813	-412.4504699707032	-159.168441772461	1547.68603515625	-433.5283203125001	-116.0280456542969	1513.994995117188	-412.3001098632814	-49.61781311035158	1500.922119140625	-419.4652709960939	-44.44334793090821	1446.64697265625	-474.1596679687501	222.1040649414063	1514.721801757813	-493.8767089843751	221.7204284667969	1522.869262695313	-412.3182678222657	316.0657043457032	1537.740966796875	-478.3040771484376	-317.9352416992188	1124.284301757813	-839.071472167969	-291.5388488769532	1084.454223632813	-602.3192749023439	-497.7830200195314	1176.857421875	-675.8856201171876	-508.8684692382814	1149.38623046875	-706.3299560546876	-494.9321289062501	1141.808959960938	-650.8938598632814	-307.0853576660157	854.575134277344	-930.7849121093752	-261.1663208007813	783.0762939453127	-924.657653808594	-219.1349182128907	791.1682739257815	-896.279724121094	-278.5689697265626	726.4749145507814	-917.1003417968752	-251.6432495117188	630.2651977539064	-909.6890258789065	-230.9683685302735	621.6199951171876	-782.4827880859377	-159.1631317138672	516.1608276367189	-876.764099121094	-197.9537353515626	467.5155639648439	-934.7344360351565	-157.6779174804688	469.4777832031251	-911.9863281250002	-133.1173706054688	392.1806030273439	-890.964782714844	-131.6894226074219	185.6465606689453	-912.8221435546877	-109.9298400878907	204.4816131591797	-823.6676025390627	-181.3365020751953	135.229721069336	-858.654479980469	36.49572372436524	179.4226226806641	-850.876647949219	39.69096755981446	184.6729736328125	-897.697448730469	-4.739641189575196	150.7781372070313	-948.2092285156252	-402.8955078125001	870.3884277343752	-550.5761718750001	-365.7543334960938	815.4246215820315	-549.2388305664064	-332.3405151367188	816.1482543945315	-550.4712524414064	-391.6656188964845	738.5323486328126	-574.0328979492189	-384.1746520996095	558.9304809570314	-607.2457885742189	-338.9502258300782	556.6054687500001	-736.7006225585939	-318.3081970214844	361.2132263183594	-698.9886474609376	-364.1891174316407	278.2411193847657	-646.9833374023439	-324.0689697265626	274.6154479980469	-672.8601074218751	-327.7360534667969	233.0426788330079	-712.8595581054689	-386.9758300781251	117.7676239013672	-688.1842651367189	-348.9055786132813	149.5303802490235	-768.7388916015627	-446.4664916992189	106.4495468139649	-759.1716308593751	-236.2923126220704	65.20014953613283	-763.3227539062501	-233.7219696044922	58.71664047241212	-711.4223632812501	-283.4934387207032	25.15089416503907	-664.3992919921876	
931	4.65	-319.8254394531251	1822.591186523438	-601.0856323242189	-474.9091796875001	1764.162109375	-671.2344360351564	-311.0736389160157	1830.599365234375	-742.9362182617189	-484.7892456054689	1609.595825195313	-686.9621582031251	-488.2069702148439	1300.339477539063	-676.1215820312501	-321.9227294921876	1569.333374023438	-675.8152465820314	-330.7882385253907	1619.130126953125	-830.4387207031252	-187.0887908935547	1528.919799804688	-950.3637695312502	-156.2991180419922	1563.631103515625	-929.370788574219	-117.6467819213867	1521.678100585938	-948.739440917969	-42.59170532226563	1516.705810546875	-938.1604003906252	-42.17694091796876	1460.057983398438	-902.860290527344	226.7173309326172	1495.448852539063	-849.8420410156252	230.4319763183594	1518.478393554688	-928.7883911132815	330.9070434570313	1508.291381835938	-853.7730102539065	-340.1493225097657	1612.855224609375	-517.4455566406251	-185.8422241210938	1509.627807617188	-412.1685791015626	-159.3394622802735	1547.782348632813	-433.3678588867189	-116.1178131103516	1514.154907226563	-412.1092834472657	-49.72702407836915	1500.943115234375	-419.3457641601564	-44.66589736938477	1446.655883789063	-473.936248779297	221.9644622802735	1514.736694335938	-493.8805541992189	221.6360626220704	1523.033813476563	-412.3388977050782	316.0024108886719	1537.827392578125	-478.381072998047	-318.1455688476563	1124.290771484375	-839.252624511719	-291.6531372070313	1084.421142578125	-602.4347534179689	-497.8820800781251	1176.865844726563	-675.9936523437501	-508.9475402832032	1149.389038085938	-706.4353637695314	-495.0928344726564	1141.767456054688	-650.9936523437501	-307.2538146972657	854.7725830078127	-931.0159912109377	-261.3730468750001	783.3331298828127	-924.9119873046877	-219.1731872558594	791.2468261718752	-896.6390380859377	-278.6357421875001	726.5609130859376	-917.366149902344	-251.5833740234376	630.4384155273439	-910.0889282226565	-230.6958618164063	621.7479858398439	-782.836608886719	-159.1873016357422	516.2420654296876	-877.0502929687502	-197.9195404052735	467.5885314941407	-935.1072998046877	-157.4727783203125	469.6249389648439	-912.5159912109377	-133.0879364013672	392.2457580566407	-891.4613037109377	-131.0266265869141	185.8973236083985	-913.3734130859377	-109.7927474975586	204.5244140625001	-824.0172119140627	-181.6023864746094	135.6589965820313	-858.8944091796877	36.61208724975587	179.5339660644532	-851.3690185546877	39.91872024536134	184.9601745605469	-898.2059326171877	-4.569760322570802	151.0723419189453	-948.7551269531252	-402.8405761718751	870.3724365234377	-550.6445922851564	-365.7150878906251	815.3892822265627	-549.2697143554689	-332.3559265136719	816.123229980469	-550.4880981445314	-391.579071044922	738.5022583007814	-574.0620117187501	-384.0742492675782	558.9645385742189	-607.2238159179689	-338.8731384277344	556.5238647460939	-736.7441406250001	-318.2944030761719	361.1840820312501	-698.9820556640626	-364.0703735351563	278.2208862304688	-646.9994506835939	-324.0739440917969	274.5875244140626	-672.8511962890626	-327.7442626953126	233.0321502685547	-712.8747558593751	-386.9715881347657	117.724967956543	-688.1385498046876	-348.9195861816407	149.539794921875	-768.6250000000002	-446.4832763671876	106.4314956665039	-759.1409912109376	-236.309555053711	65.26987457275392	-763.2296752929689	-233.7554321289063	58.72435379028322	-711.4041137695314	-283.4983825683594	25.15727806091309	-664.2999877929689	
